<svg id="visual" viewBox="0 0 960 300" width="960" height="300" xmlns="http://www.w3.org/2000/svg" xmlns:xlink="http://www.w3.org/1999/xlink" version="1.1"><rect x="0" y="0" width="960" height="300" fill="#150379"></rect><path d="M0 110L32 113C64 116 128 122 192 132.2C256 142.3 320 156.7 384 146.8C448 137 512 103 576 92C640 81 704 93 768 104.8C832 116.7 896 128.3 928 134.2L960 140L960 0L928 0C896 0 832 0 768 0C704 0 640 0 576 0C512 0 448 0 384 0C320 0 256 0 192 0C128 0 64 0 32 0L0 0Z" fill="#1362ca" stroke-linecap="round" stroke-linejoin="miter"></path></svg>