<svg id="visual" viewBox="0 0 960 300" width="960" height="300" xmlns="http://www.w3.org/2000/svg" xmlns:xlink="http://www.w3.org/1999/xlink" version="1.1"><rect x="0" y="0" width="960" height="300" fill="#8231ce"></rect><path d="M0 102L32 108.3C64 114.7 128 127.3 192 134.3C256 141.3 320 142.7 384 131.7C448 120.7 512 97.3 576 94C640 90.7 704 107.3 768 117.5C832 127.7 896 131.3 928 133.2L960 135L960 0L928 0C896 0 832 0 768 0C704 0 640 0 576 0C512 0 448 0 384 0C320 0 256 0 192 0C128 0 64 0 32 0L0 0Z" fill="#150379" stroke-linecap="round" stroke-linejoin="miter"></path></svg>