<svg id="visual" viewBox="0 0 960 300" width="960" height="300" xmlns="http://www.w3.org/2000/svg" xmlns:xlink="http://www.w3.org/1999/xlink" version="1.1"><rect x="0" y="0" width="960" height="300" fill="#8231ce"></rect><path d="M0 132L32 140.2C64 148.3 128 164.7 192 181C256 197.3 320 213.7 384 206.8C448 200 512 170 576 155.7C640 141.3 704 142.7 768 150.7C832 158.7 896 173.3 928 180.7L960 188L960 301L928 301C896 301 832 301 768 301C704 301 640 301 576 301C512 301 448 301 384 301C320 301 256 301 192 301C128 301 64 301 32 301L0 301Z" fill="#0d63aa" stroke-linecap="round" stroke-linejoin="miter"></path></svg>